<svg id="Group_93" data-name="Group 93" xmlns="http://www.w3.org/2000/svg" width="104.669" height="104.669" viewBox="0 0 104.669 104.669">
  <path id="Path_33" data-name="Path 33" d="M400.807,153.96a6.6,6.6,0,0,0-9.329,0l-11.6,11.6-11.6-11.6a6.6,6.6,0,1,0-9.329,9.329l11.6,11.6-11.6,11.6a6.6,6.6,0,1,0,9.329,9.329l11.6-11.6,11.6,11.6a6.6,6.6,0,0,0,9.329-9.329l-11.6-11.6,11.6-11.6A6.6,6.6,0,0,0,400.807,153.96Z" transform="translate(-327.542 -122.556)" fill="#d3d3d3"/>
  <path id="Path_34" data-name="Path 34" d="M342.334,85.014a52.334,52.334,0,1,0,52.334,52.334A52.393,52.393,0,0,0,342.334,85.014Zm0,91.475a39.141,39.141,0,1,1,39.141-39.141A39.185,39.185,0,0,1,342.334,176.489Z" transform="translate(-290 -85.014)" fill="#d3d3d3"/>
</svg>
