<svg fill="#CAE042" xmlns="http://www.w3.org/2000/svg" width="109.417" height="104.669" viewBox="0 0 109.417 104.669">
  <path fill="#CAE042" id="Path_44" data-name="Path 44" d="M107.485,144.459a6.6,6.6,0,0,0-9.329,0l-8.366,8.366a52.218,52.218,0,1,0,8.022,10.637l9.673-9.673A6.6,6.6,0,0,0,107.485,144.459Zm-16.01,44.876a39.19,39.19,0,1,1-11.01-27.185L52.38,190.235l-9.3-9.3a6.6,6.6,0,0,0-9.329,9.329l13.96,13.96a6.6,6.6,0,0,0,9.329,0l30.974-30.974A38.913,38.913,0,0,1,91.475,189.334Z" transform="translate(0 -137)" />
</svg>
