<svg xmlns="http://www.w3.org/2000/svg" width="403.807" height="224.642" viewBox="0 0 403.807 224.642">
  <path id="Path_31" data-name="Path 31" d="M1077.347,517.566c22.848-5.072,48.324,5.262,61.182,24.818,6.987,10.627,10.288,23.2,15.6,34.751s13.663,22.878,25.888,26.383c18.2,5.216,36.107-8.625,48.584-22.861s25.1-31,43.743-34.3c20.8-3.687,39.938,10.9,56.218,24.349s36.1,27.508,56.649,22.611c19.42-4.628,31.489-25.9,30.99-45.863s-10.93-38.368-23.327-54.018c-26-32.819-61.332-57.142-98.522-76.375-45.971-23.774-97.251-40.71-148.824-36.386s-103.157,33.271-123.947,80.667c-5.791,13.2-14.583,44.316-4.735,57.737C1031.447,538.974,1059.9,521.44,1077.347,517.566Z" transform="translate(-1012.41 -380)" fill="#fff" opacity="0.2"/>
</svg>
