<svg xmlns="http://www.w3.org/2000/svg" width="186.847" height="214.395" viewBox="0 0 186.847 214.395">
  <path id="Path_29" data-name="Path 29" d="M1595.283-239.374c4.847,15.413,4.861,33.315,15.724,45.275,10.063,11.081,27.541,13.473,41.445,7.93s24.342-17.8,30.488-31.45,8.455-28.689,9.945-43.583c2.716-27.151,2.8-55.285-6.717-80.857s-30.182-48.29-56.84-54.115c-18.348-4.009-37.811.263-54.511,8.857s-30.951,21.263-44.079,34.693c-8.517,8.713-16.852,18.141-20.841,29.655-3.125,9.018-4.2,24.624,4.585,31.03,8.07,5.888,23.427,3.2,33.005,6.19C1569.42-278.9,1588.33-261.487,1595.283-239.374Z" transform="translate(-1507.624 397.691)" fill="#fff" opacity="0.2"/>
</svg>
