<svg xmlns="http://www.w3.org/2000/svg" width="213.683" height="176.4" viewBox="0 0 213.683 176.4">
  <path id="Path_30" data-name="Path 30" d="M1360.424-395.311c-15.781-3.463-31.318-12.357-47.1-8.885-14.618,3.217-25.389,17.188-27.5,32.007s3.333,29.972,12.114,42.094,20.68,21.607,32.859,30.309c22.2,15.864,46.564,29.935,73.483,34.4s56.905-2.159,75.22-22.386c12.606-13.922,18.583-32.931,19.436-51.692s-3.047-37.427-8.166-55.5c-3.321-11.723-7.354-23.643-15.356-32.832-6.269-7.2-19.273-15.89-29.2-11.46-9.122,4.071-14.431,18.731-21.79,25.552C1407.58-398.082,1383.066-390.342,1360.424-395.311Z" transform="translate(-1285.376 440.457)" fill="#fff" opacity="0.2"/>
</svg>
