<svg xmlns="http://www.w3.org/2000/svg" width="279.148" height="255.975" viewBox="0 0 279.148 255.975">
  <path id="Path_28" data-name="Path 28" d="M1284.666-50.865c-20.954,8.721-41.984,20.318-54.117,39.5-18.5,29.254-8.716,72.71,20.545,91.2,20.162,12.744,45.256,13.647,68.743,17.805s48.954,14.242,58.147,36.251c5.145,12.317,4.787,27.553,14.317,36.9,7.218,7.079,18.585,8.616,28.354,6.013s18.2-8.753,25.783-15.441c39.578-34.91,61.8-90.5,51.22-142.2-8.5-41.526-39.635-78.1-79.6-92.461C1378.425-87.542,1321.456-66.175,1284.666-50.865Z" transform="translate(-1221.137 77.98)" fill="#fff"/>
</svg>
