<svg id="Group_32" data-name="Group 32" xmlns="http://www.w3.org/2000/svg" xmlns:xlink="http://www.w3.org/1999/xlink" width="107.328" height="98.061" viewBox="0 0 107.328 98.061">
  <defs>
    <clipPath id="clip-path">
      <path id="Path_22" data-name="Path 22" d="M259.77,58.252c-3.938-1.991-9.035-1.28-14.352,2a29.47,29.47,0,0,0-10.074,10.283,19.721,19.721,0,0,0-1.364,16.134c-4.457,14.1-14.62,20.174-30.228,18.069a37.177,37.177,0,0,0-16.68,1.517,34.112,34.112,0,0,0-14.206,9.149,28.215,28.215,0,0,0-7.026,25.889,38.058,38.058,0,0,0,5.066,12.491,3.246,3.246,0,0,0,5.911-1.461c.017-.148,1.777-14.911,10.865-23.263,1.157-1.064,5.533-4.454,13.249-3.413,15.362,2.072,27.9-.574,37.261-7.867,6.751-5.258,11.712-12.8,14.764-22.426,5.1-1.805,8.712-4.774,10.751-8.835C267.318,79.322,268.6,62.714,259.77,58.252Z" transform="translate(-165.14 -57.145)" fill="none"/>
    </clipPath>
  </defs>
  <g id="Group_21" data-name="Group 21" transform="translate(79.248 52.995)">
    <g id="Group_20" data-name="Group 20">
      <path id="Path_10" data-name="Path 10" d="M835.4,495.82a3.247,3.247,0,0,0-3.247-3.246h-1.014l.446-.446a3.246,3.246,0,0,0-4.591-4.591l-5.037,5.037H821.8a13.085,13.085,0,0,1-9.977-4.607l-.127-.15a46.041,46.041,0,0,1-4.385,4.847,19.566,19.566,0,0,0,14.489,6.4h.149l5.037,5.037a3.246,3.246,0,1,0,4.591-4.591l-.446-.446h1.014A3.246,3.246,0,0,0,835.4,495.82Z" transform="translate(-807.315 -486.586)" fill="#c9e042"/>
    </g>
  </g>
  <g id="Group_23" data-name="Group 23" transform="translate(43.078 71.187)">
    <g id="Group_22" data-name="Group 22">
      <path id="Path_11" data-name="Path 11" d="M531.892,652.534l-3.851-5.992.032-.146A19.564,19.564,0,0,0,526.713,634a60.235,60.235,0,0,1-7.052.72,13.081,13.081,0,0,1,2.069,10.294l-.032.146-5.992,3.851a3.246,3.246,0,0,0,3.51,5.462l.53-.341-.216.99a3.246,3.246,0,1,0,6.344,1.381l.216-.99.341.53a3.246,3.246,0,1,0,5.462-3.51Z" transform="translate(-514.213 -634)" fill="#c9e042"/>
    </g>
  </g>
  <g id="Group_25" data-name="Group 25" transform="translate(2.802 32.268)">
    <g id="Group_24" data-name="Group 24">
      <path id="Path_12" data-name="Path 12" d="M201.434,324.612h-.149l-5.037-5.036a3.246,3.246,0,0,0-4.591,4.591l.446.446h-1.014a3.246,3.246,0,1,0,0,6.492H192.1l-.446.446a3.246,3.246,0,1,0,4.591,4.591l5.037-5.037h.15a13.092,13.092,0,0,1,5.606,1.261,42.854,42.854,0,0,1,8.78-1.461A19.566,19.566,0,0,0,201.434,324.612Z" transform="translate(-187.843 -318.625)" fill="#c9e042"/>
    </g>
  </g>
  <g id="Group_27" data-name="Group 27">
    <g id="Group_26" data-name="Group 26">
      <path id="Path_13" data-name="Path 13" d="M259.77,58.252c-3.938-1.991-9.035-1.28-14.352,2a29.47,29.47,0,0,0-10.074,10.283,19.721,19.721,0,0,0-1.364,16.134c-4.457,14.1-14.62,20.174-30.228,18.069a37.177,37.177,0,0,0-16.68,1.517,34.112,34.112,0,0,0-14.206,9.149,28.215,28.215,0,0,0-7.026,25.889,38.058,38.058,0,0,0,5.066,12.491,3.246,3.246,0,0,0,5.911-1.461c.017-.148,1.777-14.911,10.865-23.263,1.157-1.064,5.533-4.454,13.249-3.413,15.362,2.072,27.9-.574,37.261-7.867,6.751-5.258,11.712-12.8,14.764-22.426,5.1-1.805,8.712-4.774,10.751-8.835C267.318,79.322,268.6,62.714,259.77,58.252Z" transform="translate(-165.14 -57.145)" fill="#cae042"/>
    </g>
  </g>
  <g id="Group_29" data-name="Group 29" transform="translate(44.837 14.988)">
    <g id="Group_28" data-name="Group 28">
      <path id="Path_14" data-name="Path 14" d="M545.991,182.41a3.247,3.247,0,0,0-4.591,0l-.446.446v-1.014a3.246,3.246,0,1,0-6.493,0v1.014l-.446-.446A3.246,3.246,0,0,0,529.425,187l5.037,5.036v.149a19.565,19.565,0,0,0,5.664,13.781,15.855,15.855,0,0,0,4.5-4.69,13.081,13.081,0,0,1-3.669-9.091v-.149L545.991,187A3.2,3.2,0,0,0,545.991,182.41Z" transform="translate(-528.474 -178.596)" fill="#c9e042"/>
    </g>
  </g>
  <g id="Group_31" data-name="Group 31">
    <g id="Group_30" data-name="Group 30" clip-path="url(#clip-path)">
      <path id="Path_15" data-name="Path 15" d="M738.636,442.86a5.164,5.164,0,0,0-5.935,3.964c-1.4,4.859-2.425,10.983-2.425,10.983s-.348,4.014,5.142-.372S749.082,444.305,738.636,442.86Z" transform="translate(-660.531 -395.204)" fill="#030504"/>
      <path id="Path_16" data-name="Path 16" d="M259.481,677.412a5.987,5.987,0,0,0-9.488,6.415c1.661,4.557,5.011,3.487,4.476,1.757s1.69-2.861,1.69-2.861,1.878-1.643,3.285-.5S263.091,680.651,259.481,677.412Z" transform="translate(-239.17 -599.532)" fill="#030504"/>
      <path id="Path_18" data-name="Path 18" d="M702.695,107.128s8.171,14.611-4.023,23.356l-3.421-5.943.864-12.3Z" transform="translate(-629.832 -100.96)" fill="#030504"/>
      <path id="Path_19" data-name="Path 19" d="M938.1,68.419s-15.776-17.173,0-26.273Z" transform="translate(-836.565 -43.997)" fill="#030504"/>
      <path id="Path_20" data-name="Path 20" d="M107.916,424.066s21.463,8.448,28.447-.243,20.569-8.295,20.569-8.295l-11.573-4.184-28.53,7.416Z" transform="translate(-114.978 -367.634)" fill="#030504"/>
    </g>
  </g>
</svg>
